<?xml version="1.0" encoding="UTF-8"?>
<svg id="Layer_1" xmlns="http://www.w3.org/2000/svg" xmlns:xlink="http://www.w3.org/1999/xlink" version="1.1" viewBox="0 0 471.1 133.7">
  <!-- Generator: Adobe Illustrator 29.0.1, SVG Export Plug-In . SVG Version: 2.1.0 Build 192)  -->
  <defs>
    <style>
      .st0 {
        fill: none;
      }

      .st1 {
        mask: url(#mask);
      }

      .st2 {
        fill-rule: evenodd;
      }

      .st2, .st3 {
        fill: #fff;
      }

      .st4 {
        clip-path: url(#clippath);
      }
    </style>
    <clipPath id="clippath">
      <rect class="st0" x="3" width="465" height="133.7"/>
    </clipPath>
    <mask id="mask" x="3" y="2.3" width="465.1" height="129.1" maskUnits="userSpaceOnUse">
      <g id="mask0_172_1219">
        <path class="st3" d="M468,2.3H3v129.1h465V2.3Z"/>
      </g>
    </mask>
  </defs>
  <g class="st4">
    <g class="st1">
      <g>
        <path class="st2" d="M85.2,110.7c2,0,4,.1,6.1.1-3.2,4.6-13.3,19.2-18.3,20.5,1.2-7.7,8.3-15.1,12.3-20.7Z"/>
        <path class="st2" d="M84.9,32c-.3.1-.6.2-.9.3-.8.6-1.2,1.3-1.2,2.7.7,1.4,2,2.4,4.1,2.4,1.2-.6,2-1.3,2.9-2.3v-.6c-1.5-1-2.7-2.4-4.9-2.5Z"/>
        <path class="st3" d="M295.4,35.4c6.1.1,13.6,1.3,20,.3,2.1-.3,6.3-.9,7.1.6.5,1,.2,1.9-.1,2.7-2.5,1.1-7.2,1.3-8.5,3.5-1.8,3.1-.8,10.8-.8,15.2v33.6c0,4.9-.7,11.5,1.2,14.6,3.7,6,24.1,4.2,28.9.4,2.7-2,4-7.7,6.7-9,4.5.4,1.4,7.9.8,11.3-.3,1.6.4,5.4-.8,6.2-2.4,1.3-11.6,0-15,0h-28c-3.5.5-8.8,1-12.3.3,0-.1-.1-.3-.1-.4-.3-.4-.4-1.4-.1-2,1.3-2.5,6.3-1,7.9-4.7,1.5-3.6.4-13.2.4-17.9v-42.2c-.3-2-.6-4-1.6-5.3-2.1-2.7-7.8-2.1-6.4-7,.1-.1.4-.3.6-.3Z"/>
        <path class="st3" d="M375.9,49.2c.4.1.7.3,1.1.4.4,3.7-4.5,3.4-6.5,5-1.6,1.3-1.1,5.1-1.1,7.9v38.4c1,4.8,7.8,2.9,7.1,7.2-1.8.6-20.3.4-22.3,0,0-.1-.1-.2-.1-.3,0-.8,0-1.3.3-1.8,1.9-.6,5.9-1,6.8-2.6,1.4-2.3.4-8.6.4-11.9,0-12-.1-24-.1-35.9-.9-2.7-4.5-2.5-6.8-3.8,0-.6.1-1.3.1-2,.1,0,.2-.1.3-.1,5.9-1,15,1.8,20.7-.5Z"/>
        <path class="st3" d="M381.3,49.6c7.9,0,17.1.8,25.8.6,4.4-.1,9.5-1.1,13.8-.3,0,0,.1.1.1.1-.3,3.4-.5,7.9-1.2,11.5-.1,0-.3.1-.4.1-.4,0-.7.1-1.1.1-2.7-1.6-2.5-5.8-5.7-7.2-1.7-.7-16.7-1.5-17.6,0v21.8c.1,0,.3.1.4.1,2.1.9,13.4-.4,14.1-1.4,1.1-1.6.3-4.4,2-5.3.9-.2,1.6.1,2.3.6,0,1.7-.9,16.9-1.2,17.5-.1,0-.2.1-.3.1-1.2,0-1.5-.2-2.1-.6-.9-6.9-2.9-5.9-9.7-6.9h-5.4c-.8,2.8-.6,21.2.4,22.7,1.4,2,6.2,1.4,8.3,2.6.3,1.1,0,1.5-.4,2.2-4.7,1.1-10.1-1-15.5-.1-2.1.3-4.9.7-6.7.3-.3-.7-.3-1.3-.1-2.2,1.8-.8,3.9-.8,4.9-2.4,1.7-2.8,1.2-8.2,1.2-12.6v-23.7c0-3.2.5-7.5-.3-10.2-1-3.4-5.7-3.7-6.1-6.4.3-.3.5-.7.7-1.1Z"/>
        <path class="st3" d="M424.5,49.6c8.1,0,17.7.7,26.7.6,4.4,0,9.5-1.1,13.8-.3-.2,3.2-.4,8.2-1.1,11.7-.1,0-.3.1-.4.1-2.8,1-3.9-5.1-5.4-6.2-2.6-1.9-15.5-2.3-19.8-1.2-.9,3.6-.9,16.6-.1,20.5.2.1.4.3.6.4,2.7.7,10.8-.1,13.3-.8,1.1-1.6,1.5-4.4,2.6-6.1,1.3,0,1.8.2,2.6.6,0,4-.9,7.9-.9,12.3v5c-.6.8-2,.4-2.6,0-.4-1.7-.5-4.5-1.5-5.8-1-1.3-12.1-2.2-14.3-1.1,0,4.9-1.1,19.5.8,22.4,1.8,2.7,9.3,3.2,14.3,2.4,2.3-.4,4.5-.7,6.4-1.5,3.9-1.8,4.2-6,6.7-7.6,1.1.1,1.5.4,2.1,1.1-.1,2.2-1.1,10.4-2.1,12.1-10.4,1-22.4-1.6-33,0-3.1.5-9.3,1.2-8.8-2.2,1.7-.7,4-.9,5.4-1.8,1.9-7.4.6-21.5.6-30.3,0-5.8-.1-11.7-.1-17.5-.8-3.9-6.8-2.6-5.9-6.7,0,0,.2-.1.3-.3Z"/>
        <path class="st3" d="M115.4,72.3c-4.7-6.2-10.4-13.8-15-19.9-.5-1,.3-2.8-.6-4.2-.8-.3-2.3-.4-3.2-.9-1.8-1-2.1-4.5-4.2-5.3-.6-.1-1.3-.2-2-.3,0,1.6-.3,2.1-.9,2.9-.5,0-1-.1-1.5-.1-1.5-.7-1.6-2.3-2.7-3.2-.8-.6-2.3-.3-3-.8-1.1-1.3-2.3-2.7-3.5-3.9-1.1.9-2.6,2.9-4.5,2,0-.3-.1-.6-.1-.9,2.9-3.4,5.7-6.7,8.7-10-4.4-6.5-8.9-12.9-13.3-19.3-.9-1.2-2.6-1.8-3.2-3.2,0-.5.1-1,.1-1.5.6-.5,1.5-1.4,2.7-.9.3.2,3,5.1,3.7,6,4.4,5.5,8.7,10.8,13,16.3.9-.4,1.2-1,2.4-1.2.8.9,1.5,1.8,2.3,2.7-.4,2.5-.9,7.4,2.6,7,.4-1.2.3-2.7-.1-3.8.4-.9.9-1.1,1.8-1.5,1.3,0,1.8.5,2.6,1.1.3,1.6.4,3,1.1,4.1h1.5v1.1c-.3.7-.4,1-1.1,1.4h-2.3c0,5.4,3.5,7.7,5.7,10.8,5.1,6.9,11.7,16,16.7,23"/>
        <path class="st3" d="M120.5,71.3c7.4,10.1,14.8,20.2,22.1,30.3-1.3.6-3.8,2.2-5,1.4-6.8-9.2-13.5-18.4-20.3-27.5"/>
        <path class="st3" d="M145.5,110.7c1.2,0,3.6-.3,4.2.3,3.8,3.3,7.3,9.8,9.7,14.6.7,1.3,2.7,4.1,2.3,5.8-6.9-3.6-13.6-14-18.1-20.4h0c.6-.2,1.2-.3,1.8-.3Z"/>
        <path class="st3" d="M167,2.4c.4.3.9.4,1.2.8,1,.9,1,2.2-.2,2.9-1.3.6-1.9,1.6-2.6,2.7-4.2,6.1-8.5,12.2-12.8,18.3-.4.5-.4.8,0,1.3,2.7,3,5.2,6,7.8,9,.3.4.5.8.2,1.1-.3.3-.8.5-1.1.4-.6-.1-1.1-.4-1.5-.8-.6-.4-1.3-1-1.9-1.5-.8,1-1.7,1.9-2.5,2.9-.9,1.1-2,1.9-3.5,1.8-.3,0-.6.3-.7.4-.6.7-1,1.4-1.6,2-.8,1-1.6,1.2-2.4.9-.7-.3-1.1-1.2-1-2.3,0-.1,0-.3,0-.4-1.2-.3-2.4.1-3.1,1.1-1.1,1.5-2.3,3.1-3.4,4.6-.1.2-.4.4-.7.4-1.8,0-3.5,0-5.3,0,0,0,0-.2,0-.3.1-.2.3-.4.4-.6,1.8-2.4,3.5-4.9,5.4-7.2.4-.6.6-1.1.6-1.9,0-.8,0-1.5,0-2.1-.9-.2-2-.1-2.7-.6-.4-.3-.5-1.2-.8-1.9h.7c1,0,1.5-.3,1.7-1.3.1-.6.2-1.3.2-2,0-.8,1-1.8,2.1-2,.9-.1,2.1.4,2.3,1.3,0,.3,0,.8-.1,1.1,0,.8-.2,1.5,0,2.2,0,.8.7,1,1.4.5,1.5-1,2.5-3.7,1.8-5.3-.4-1.1-.2-1.8.4-2.7,1.4-1.9,1.6-2,3.5-.6.1,0,.2.1.4.3,1.1-1.3,2.1-2.7,3.2-4,3.9-5,7.9-10,11.8-15,.4-.4.6-1,.6-1.6,0-.9.4-1.5,1.2-2h.8ZM152.2,34.9c-.1-2.3-1.5-3.2-3.3-2.5-1.3.4-2.3,1.4-3.4,2.2-.5.3-.4.8,0,1.1.7.6,1.4,1.3,2.2,1.7,1.2.7,4.2-.7,4.5-2,0-.2,0-.4,0-.4Z"/>
        <path class="st3" d="M265.4,87.6h-11.8c-1.1,0-2.1-.1-3.2-.2-.3,0-.6.2-.7.4-1.5,3.6-3,7.1-4.4,10.7-.3.8-.4,1.6-.4,2.5,0,1.6.9,2.6,2.2,3.2.9.4,1.9.9,2.8,1.3.3.2.6.4.9.6.4.3.9.6.7,1.2-.2.6-.7,1-1.3.9-1.3,0-2.5-.1-3.7-.2-4.4-.3-8.8-.1-13.1.8-1.2.3-2-.3-2-1.3s.2-.8.4-1c.5-.4,1.1-.9,1.7-1.1,2.7-1.1,4.5-3.2,5.7-5.7,3.4-7.4,6.8-14.8,10.1-22.2,3.7-8.2,7.1-16.5,9.7-25.1.6-2,1.8-3.1,3.6-3.8.5-.2.9-.1,1.1.3.4.6.8,1.3,1,2,4.9,11.4,9.8,22.8,14.7,34.2,2.2,5.1,4.5,10.1,6.7,15.1,1.3,2.9,3.4,4.7,6.4,5.6.3,0,.5.2.8.3,1.4.6,1.3,1.3.7,2.5,0,.2-.6.3-.8.3-5-1-10-.8-15.1-.6-1.4,0-2.8.1-4.2.3h-.8c-.6,0-1.1-.2-1.3-.8-.2-.7.1-1.2.7-1.5.8-.4,1.8-.8,2.6-1.3.7-.4,1.3-.8,1.9-1.2,1-.8,1.2-1.5.8-2.7-.8-2-1.6-3.9-2.5-5.9-1-2.3-2-4.6-3-7-.2-.5-.4-.6-.9-.6-1.6,0-3.7,0-5.7,0ZM251.5,84c6.4.4,12.7.5,19.1.1-.1-.4-.3-.6-.3-.8-2.8-6.4-5.6-12.7-8.5-19.2,0-.2-.1-.4-.3-.6-.3-.3-.5-.7-.8-.7s-.5.4-.8.7c0,0-.1.3-.1.3-2.2,5.4-4.4,10.8-6.6,16.1-.6,1.3-1.1,2.7-1.8,4.1Z"/>
        <path class="st3" d="M71.1,90.1v8.7c0,3.2,1.4,4.9,4.5,5.5,1.4.3,2.8.3,4.2.3,3,0,6.1.2,9.2-.4,4.3-.9,7.5-3.1,9-7.4.5-1.3,1.5-1.6,2.7-.9.6.3.6.9.5,1.5-.4,2.7-.9,5.5-1.4,8.2-.1.7-.2,1.5-.2,2.2s-.3.8-.7.8c-.6,0-1.3.1-2,.1-3.9,0-7.8-.2-11.7-.3-2.1,0-4.3-.1-6.4,0-6.5.1-12.9.3-19.5.4-.3,0-.6,0-1,0-.7-.1-1-.6-1.1-1.3,0-.6.3-1.1.9-1.3.8-.2,1.5-.3,2.3-.4,2.2-.4,2.8-1.1,3-3.4,0-.4,0-.7,0-1.1v-41.6c0-1.1-.2-2.3-.3-3.4-.1-1-.6-1.6-1.5-2-1.1-.5-2.1-1-3.3-1.3-1.1-.4-1.5-1.1-1.1-2.3.2-.5.5-.8,1.1-.8.9.1,2,.3,2.9.3,5.9.1,11.7.3,17.6.3,3.7,0,7.4-.1,11.1-.2,2.3,0,4.5-.2,6.8-.3.3,0,.6,0,1,0,.5,0,.8.2.6.8-.7,3.2-.9,6.4-.8,9.7,0,.7,0,1.4-.9,1.6-.8.2-1.6-.2-2.1-1-.4-1-.8-1.9-1.3-2.9-1.1-2.3-3.1-3.6-5.6-3.7-4.9-.2-9.9-.3-14.8-.3-1.2,0-1.6.3-1.6,1.5,0,4.4,0,8.8,0,13.3v5.3c0,1,.4,1.4,1.4,1.4,2.6,0,5.1-.2,7.7-.3,1.2,0,2.4-.2,3.6-.3,1.1,0,2-.6,2.3-1.6.4-1,.6-2.1.8-3.2.4-1.6,1.2-2.1,2.7-1.4.5.3.8.6.7,1.2-1,4.9-.9,10-.8,15,0,1.4-.1,1.6-1.1,1.9-.9.3-1.6-.1-1.8-1.1-.2-1.1-.4-2.2-.6-3.3-.4-1.9-1.4-2.7-3.3-2.9-3.4-.2-6.8-.3-10.2-.4-1.3,0-1.4,0-1.4,1.5v9.3Z"/>
        <path class="st3" d="M3,37.1c0-.1.1-.2.2-.3.4-1,.7-1.3,1.8-1.1,1.3.1,2.5.4,3.7.4,2.1.1,4.3.3,6.4.3,6.4,0,12.9.2,19.3,0,6.3-.1,12.6-.4,18.9-.6,1.1,0,2.3,0,3.4.1.5,0,.8.3.7,1-.9,3.9-1.1,7.9-1.2,11.9,0,.5,0,1.1,0,1.6,0,.8,0,1.5-.9,1.8-.9.3-1.8.1-2.5-.6-.3-.3-.5-.8-.7-1.1-.6-1.3-1.2-2.5-1.8-3.7-1.5-3-4-4.5-7.3-4.7-5.7-.3-11.5-.3-17.2-.4-.8,0-1.6.2-2.4.3-.8.2-1.2.8-1.3,1.6v27.3c0,1.4.4,1.8,1.8,1.8,4.1-.1,8.1-.4,12.3-.6,1,0,2.1-.1,3.1-.2,1.8-.1,2.8-.8,3.2-2.7.4-1.4.6-2.8.9-4.2.2-.8.5-1.6,1.4-1.8,1-.2,2,0,2.8.7.3.3.4.8.3,1.1-.9,4.4-1.2,8.9-1.2,13.4s0,5.1,0,7.6-.3,1.6-1.3,1.8c-1.4.3-2.1,0-2.5-1.1-.2-.5-.3-1.1-.4-1.6-.3-1-.6-2.1-1.1-3.1-1.1-2.7-3-4.1-6-4.1-4,0-8.1-.2-12.1-.3-1,0-1.2.2-1.2,1.3v26.5c0,2.5.9,3.9,3.4,4.6,2,.5,4.2.8,6.3,1.2.6.1,1.1.3,1.6.4.8.3,1,1,1,1.8,0,.8-.4,1.3-1.1,1.5-1.2.3-2.4.4-3.6.4-4.5-.1-8.9-.5-13.4-.5s-6.8.4-10.3.6c-.3,0-.6,0-.9,0-1.5,0-2.3-1.1-1.9-2.5.1-.4.5-.8.8-.9.5-.3,1.1-.4,1.8-.4,2.1-.3,3.6-1.4,4.5-3.3.9-2,1.3-4.1,1.3-6.3v-52.8c0-4-1.6-7-5.2-8.8-.4-.2-.8-.4-1.1-.6-.9-.4-1.6-1-2.1-1.8v-1.1Z"/>
        <path class="st3" d="M207.7,80.8c1.1,2.1,2,4.2,3,6.2,3.1,5.8,6.8,11.2,11.6,15.7,2.1,2,4.4,3.6,7.4,4.1.4,0,.9.5,1.1.8.6,1,.1,1.7-1,1.8-2.7.1-5.2-.4-7.8-1.5-4.3-1.8-7.8-4.7-10.9-8.1-4.5-4.9-8-10.6-11.1-16.6-.5-.9-.9-1.2-2-1.1-1.5.2-2.9.2-4.4.3,0,.3,0,.6,0,.8v17.9c0,2,.6,2.8,2.5,3.3,1.1.3,2.3.4,3.4.7.4.1.9.3,1.3.4.7.4.9,1,.7,2-.2.8-.8.8-1.3.7-2.7,0-5.3-.2-8-.1-3.5,0-7.1.3-10.7.4-1.2,0-1.7-.3-1.8-1.1-.1-.8.1-1.3.9-1.5.4-.1.8-.2,1.1-.2,2.5-.3,3.9-1.7,4.1-4.2v-42.4c0-3.2-1.3-4.9-4.4-5.6-.8-.2-1.5-.4-2.1-.6-.5-.2-.8-.6-.8-1.3,0-.7.4-1.2,1.1-1.3.6,0,1.3,0,1.9,0,3.1,0,6.1.1,9.2.1,4.5,0,9.1-.2,13.6-.1,3.2,0,6.4.6,9.3,2,5.6,2.4,8.5,6.9,8.1,13.1-.3,5.5-2.8,9.8-7.6,12.6-1.6,1-3.5,1.6-5.3,2.3-.3.2-.7.3-1.3.5ZM193.6,79.2c1.6-.1,3.1-.2,4.5-.4,3.2-.4,6.3-1,9.2-2.5,2.8-1.4,4.7-3.6,5.4-6.7.8-3.2.7-6.3-.3-9.5-.8-2.5-2.4-4.4-4.9-5.4-3.6-1.5-7.3-1.8-11.1-1.2-2,.3-2.6,1.1-2.9,3,0,.4-.1,1-.1,1.5v20c0,.3,0,.6,0,1.1Z"/>
        <path class="st3" d="M153.8,77.9v21.8c0,.6,0,1.1.1,1.7.2,1.3.9,2.3,2.1,2.9,1.8.6,3.6,1.2,5.4,1.7,1.2.3,1.7,1.5.9,2.5-.3.3-.9.5-1.3.4-4.4-.2-8.7-.5-13.1-.6-2.6,0-5.2.3-7.8.5-.3,0-.6,0-1,0-1,0-1.4-.3-1.5-1.1-.2-.9,0-1.5,1-1.8.9-.3,1.9-.6,2.8-.9,3.2-1.1,4.4-2.8,4.4-6.2v-43.2c0-1.2-.6-1.8-2-1.8s-2.8,0-4.2,0c-1.9.2-3.8.4-5.7.8-3.8.8-6.6,3-8.4,6.5-.6,1.2-1.2,2.5-1.8,3.7-.6,1.3-1.3,1.5-2.5.8-.6-.3-.8-.7-.6-1.3,1.3-4.3,1.5-8.8,1.6-13.3,0-.7.3-1.1.9-1.1,1.4,0,2.7,0,4.1,0,3.8.1,7.6.3,11.4.4,2.5,0,4.9.1,7.3.1,6.7,0,13.4-.1,20.1-.3,3,0,5.9-.4,8.9-.6.4,0,.8,0,1.2,0,.6,0,.9.4.9,1,.9,4.5,1.1,9.1,1,13.7,0,.6-.1,1-.8,1.2-.9.3-1.6.1-2-.5-.2-.3-.3-.6-.4-1-.5-1.1-.9-2.3-1.4-3.5-1.4-3.3-4-5.2-7.5-6-3.5-.8-7.1-1-10.7-.6-1.4.1-1.6.4-1.6,1.9.1,7.2.1,14.6.1,21.9Z"/>
        <path class="st3" d="M118.5,66.1c.8,1.8,2.3,2.3,4,2.7-6.4,8.8-12.9,17.4-19.2,26-.7-.5-1.4-1.1-2.1-1.4-.8-.3-1.6-.4-2.5-.6,6.4-8.8,13-17.7,19.7-26.7Z"/>
      </g>
    </g>
  </g>
</svg>