<svg width="160" height="46" viewBox="0 0 160 46" fill="none" xmlns="http://www.w3.org/2000/svg">
<g clip-path="url(#clip0_259_25570)">
<path fill-rule="evenodd" clip-rule="evenodd" d="M28.2709 38.0908C28.9662 38.1126 29.6616 38.1345 30.357 38.1345C29.2704 39.7276 25.7936 44.7251 24.0552 45.2053C24.4681 42.5428 26.9236 40.0113 28.2709 38.0908Z" fill="#ED1C24"/>
<path fill-rule="evenodd" clip-rule="evenodd" d="M28.1624 11.0081C28.0538 11.0517 27.9451 11.0735 27.8582 11.1172C27.5757 11.3136 27.4453 11.5755 27.4453 12.0556C27.6843 12.5357 28.1407 12.8849 28.8578 12.8849C29.2707 12.6666 29.5531 12.4266 29.8574 12.0992C29.8574 12.0338 29.8574 11.9683 29.8574 11.881C29.3576 11.5318 28.9447 11.0517 28.1624 11.0081Z" fill="#ED1C24"/>
<path d="M100.611 12.1647C102.697 12.2083 105.305 12.6011 107.499 12.2738C108.216 12.1647 109.672 11.9683 109.955 12.492C110.129 12.8194 110.02 13.1467 109.911 13.4304C109.064 13.8233 107.434 13.8669 107 14.6307C106.369 15.7001 106.739 18.3407 106.739 19.8683C106.739 23.7311 106.739 27.5938 106.739 31.4347C106.739 33.1151 106.5 35.3848 107.152 36.4541C108.434 38.5274 115.453 37.9163 117.104 36.6069C118.017 35.9085 118.495 33.9444 119.408 33.508C120.972 33.6607 119.886 36.2141 119.668 37.3925C119.56 37.9599 119.799 39.2475 119.408 39.5312C118.582 39.9677 115.431 39.5312 114.236 39.5312C111.02 39.5312 107.804 39.5312 104.588 39.5312C103.371 39.7058 101.567 39.8586 100.372 39.6403C100.35 39.5967 100.328 39.5312 100.328 39.4876C100.241 39.3348 100.176 39.0075 100.285 38.8111C100.72 37.9599 102.458 38.4837 103.001 37.1961C103.523 35.9522 103.153 32.6569 103.153 31.0201C103.153 26.1753 103.153 21.3523 103.153 16.5075C103.045 15.8092 102.936 15.1327 102.588 14.6744C101.871 13.736 99.9155 13.9542 100.394 12.2738C100.437 12.2301 100.524 12.1865 100.611 12.1647Z" fill="white"/>
<path d="M128.295 16.9221C128.426 16.9658 128.534 17.0312 128.665 17.0749C128.795 18.3406 127.122 18.2315 126.426 18.7989C125.883 19.2354 126.057 20.5666 126.057 21.5269C126.057 25.9352 126.057 30.3217 126.057 34.73C126.405 36.3668 128.752 35.7121 128.513 37.1961C127.882 37.3925 121.515 37.3488 120.842 37.1961C120.82 37.1524 120.798 37.1306 120.798 37.087C120.798 36.8032 120.82 36.6287 120.907 36.4541C121.559 36.2577 122.928 36.1049 123.254 35.5593C123.732 34.7737 123.406 32.5913 123.406 31.4783C123.384 27.3537 123.363 23.2291 123.363 19.1263C123.037 18.2097 121.798 18.2752 121.016 17.8169C121.037 17.5986 121.059 17.3586 121.059 17.1404C121.103 17.1185 121.124 17.0967 121.168 17.0967C123.189 16.7694 126.318 17.7296 128.295 16.9221Z" fill="white"/>
<path d="M130.164 17.075C132.881 17.0968 136.031 17.3587 139.03 17.2932C140.53 17.2495 142.312 16.9222 143.767 17.1841C143.789 17.2059 143.811 17.2277 143.811 17.2277C143.702 18.3844 143.637 19.9556 143.398 21.1996C143.355 21.2214 143.289 21.2432 143.246 21.2432C143.116 21.265 143.007 21.2869 142.877 21.2869C141.942 20.7413 142.007 19.2791 140.899 18.8208C140.312 18.5808 135.141 18.3189 134.858 18.8208C134.858 21.3087 134.858 23.8184 134.858 26.3063C134.902 26.3281 134.967 26.3499 135.01 26.3499C135.749 26.6554 139.617 26.219 139.856 25.8698C140.225 25.3242 139.943 24.364 140.53 24.0366C140.856 23.9712 141.095 24.0803 141.312 24.2549C141.312 24.8441 141.008 30.0599 140.899 30.2781C140.856 30.2999 140.834 30.3218 140.79 30.3218C140.378 30.3218 140.269 30.2563 140.052 30.1035C139.726 27.7248 139.052 28.074 136.705 27.7466C136.075 27.7466 135.445 27.7466 134.836 27.7466C134.576 28.7068 134.619 35.0356 134.988 35.5594C135.467 36.2359 137.118 36.0395 137.857 36.4541C137.944 36.8251 137.857 36.9561 137.705 37.1961C136.075 37.5671 134.228 36.8688 132.381 37.1525C131.642 37.2616 130.686 37.3926 130.077 37.2616C129.99 37.0216 129.969 36.8033 130.034 36.5196C130.664 36.2359 131.359 36.2359 131.707 35.6903C132.294 34.7301 132.12 32.8533 132.12 31.3475C132.12 28.6195 132.12 25.8916 132.12 23.1855C132.12 22.0725 132.294 20.6103 132.011 19.6719C131.664 18.4935 130.056 18.4062 129.925 17.4678C130.034 17.3587 130.099 17.2277 130.164 17.075Z" fill="white"/>
<path d="M145.028 17.075C147.831 17.0968 151.112 17.315 154.198 17.2932C155.719 17.2714 157.458 16.9222 158.935 17.1841C158.87 18.2752 158.805 19.9993 158.566 21.2214C158.522 21.2432 158.457 21.265 158.414 21.265C157.458 21.5924 157.088 19.5192 156.545 19.1264C155.654 18.4716 151.221 18.3407 149.722 18.7117C149.417 19.9556 149.417 24.4294 149.678 25.7825C149.743 25.8261 149.809 25.8916 149.896 25.9353C150.808 26.1753 153.611 25.8916 154.481 25.6734C154.872 25.1278 154.98 24.1676 155.372 23.5783C155.806 23.5565 156.002 23.6438 156.263 23.7966C156.284 25.1714 155.958 26.5027 155.958 28.0303C155.958 28.5977 155.958 29.1869 155.958 29.7544C155.741 30.0162 155.285 29.8853 155.067 29.7544C154.915 29.1651 154.894 28.2049 154.546 27.7684C154.198 27.3101 150.374 27.0046 149.635 27.3974C149.613 29.0778 149.244 34.119 149.896 35.1011C150.504 36.0177 153.112 36.2141 154.807 35.9304C155.589 35.7994 156.349 35.6903 157.001 35.4066C158.349 34.7737 158.436 33.3334 159.305 32.7878C159.674 32.8315 159.826 32.9406 160.044 33.1588C160 33.9008 159.652 36.7378 159.305 37.3053C155.719 37.6544 151.612 36.7378 147.94 37.3053C146.875 37.4798 144.724 37.7199 144.919 36.5633C145.506 36.3232 146.31 36.2577 146.788 35.9304C147.44 33.3989 147.005 28.5322 147.005 25.4988C146.984 23.491 146.962 21.4833 146.962 19.4755C146.679 18.1443 144.637 18.5808 144.919 17.1622C144.941 17.1404 144.985 17.1186 145.028 17.075Z" fill="white"/>
<path d="M38.6581 24.8878C37.0501 22.7491 35.0726 20.1521 33.4863 18.0352C33.3125 17.686 33.5732 17.075 33.269 16.5731C33.0082 16.4639 32.4867 16.4421 32.1825 16.2675C31.5523 15.9183 31.4654 14.7181 30.7266 14.4344C30.5093 14.3907 30.2702 14.3689 30.0529 14.3252C30.0746 14.8708 29.9443 15.0454 29.7487 15.3291C29.5749 15.3073 29.401 15.2855 29.2272 15.2855C28.7056 15.0454 28.6839 14.4998 28.2928 14.1943C28.032 13.9979 27.4887 14.107 27.2497 13.9324C26.8586 13.4741 26.4457 13.0158 26.0545 12.5794C25.6634 12.8849 25.1636 13.5832 24.49 13.2559C24.4682 13.1468 24.4465 13.0377 24.4465 12.9504C25.4461 11.7937 26.424 10.6371 27.4236 9.50227C25.9024 7.27628 24.3596 5.07211 22.8385 2.84613C22.5342 2.43148 21.9475 2.21325 21.752 1.75495C21.7737 1.58037 21.7954 1.40578 21.7954 1.23119C22.0127 1.05661 22.3169 0.751078 22.7298 0.925665C22.8385 0.991135 23.7729 2.69336 23.9902 2.97707C25.4896 4.85388 26.9889 6.70887 28.4666 8.58568C28.7926 8.43292 28.8795 8.23651 29.2924 8.17104C29.5531 8.47657 29.8139 8.80392 30.0746 9.10944C29.9225 9.98238 29.7487 11.641 30.9656 11.51C31.1177 11.0954 31.0525 10.5934 30.9221 10.2006C31.0742 9.89509 31.2264 9.80779 31.5523 9.67685C32.0086 9.69868 32.1608 9.85144 32.4432 10.0479C32.5302 10.5934 32.5736 11.0954 32.8127 11.4664C32.9865 11.4664 33.1603 11.4664 33.3342 11.4664C33.3342 11.5973 33.3342 11.7064 33.3342 11.8374C33.2473 12.0774 33.2038 12.1865 32.9648 12.3175C32.704 12.3175 32.4432 12.3175 32.1825 12.3175C32.1825 14.1725 33.3776 14.9581 34.1599 16.0275C35.8984 18.4062 38.18 21.5488 39.9185 23.9275" fill="white"/>
<path d="M40.4183 24.5168C42.9607 27.9868 45.5032 31.4567 48.0239 34.9484C47.5893 35.1667 46.7201 35.7123 46.3072 35.4286C43.9821 32.2642 41.6569 29.0998 39.3101 25.9572" fill="white"/>
<path d="M49.0232 38.0908C49.4361 38.069 50.2619 37.9817 50.4792 38.1999C51.783 39.3348 52.9782 41.5826 53.8256 43.2193C54.0647 43.6776 54.76 44.6379 54.6079 45.2053C52.2176 43.9613 49.9359 40.4041 48.3931 38.1781C48.3931 38.1563 48.3931 38.1345 48.3931 38.1345C48.6104 38.1127 48.8059 38.0908 49.0232 38.0908Z" fill="white"/>
<path d="M56.4336 0.838379C56.564 0.925673 56.7378 0.991143 56.8465 1.10026C57.1941 1.40579 57.1941 1.86408 56.7813 2.08231C56.3467 2.27872 56.1294 2.64972 55.8903 2.9989C54.4344 5.09394 52.9785 7.18899 51.5008 9.28404C51.3704 9.45863 51.3704 9.54592 51.5225 9.72051C52.4352 10.7462 53.3262 11.7937 54.2171 12.8194C54.3258 12.9504 54.3909 13.0813 54.2823 13.2123C54.1954 13.2995 54.0215 13.3868 53.9129 13.365C53.7173 13.3214 53.5435 13.2123 53.3913 13.1031C53.174 12.9504 52.9567 12.754 52.7394 12.5794C52.4569 12.9067 52.1527 13.2341 51.892 13.5614C51.5877 13.9324 51.2183 14.2161 50.6968 14.1943C50.6099 14.1943 50.5012 14.2816 50.4578 14.3471C50.2622 14.5871 50.1101 14.8272 49.9145 15.0454C49.6537 15.3728 49.3712 15.4601 49.0888 15.3509C48.8497 15.2637 48.7193 14.9363 48.7411 14.5653C48.7411 14.5217 48.7411 14.4562 48.7628 14.4125C48.3499 14.3034 47.9371 14.4562 47.698 14.7835C47.3069 15.3073 46.9157 15.8529 46.5246 16.3767C46.4811 16.4421 46.3725 16.5076 46.2855 16.5294C45.6771 16.5512 45.0687 16.5294 44.4602 16.5294C44.4602 16.5076 44.4385 16.4639 44.4385 16.4421C44.4819 16.3766 44.5471 16.2894 44.5906 16.2239C45.199 15.3946 45.8075 14.5435 46.4377 13.736C46.5898 13.5396 46.655 13.3432 46.655 13.0813C46.6332 12.8194 46.655 12.5576 46.655 12.3611C46.329 12.2957 45.9813 12.3175 45.7423 12.1647C45.5902 12.0774 45.5685 11.7501 45.4598 11.51C45.5902 11.51 45.6336 11.51 45.6988 11.51C46.0465 11.5319 46.2204 11.4009 46.2855 11.0517C46.329 10.8335 46.3507 10.5934 46.3507 10.3752C46.3725 10.0915 46.6984 9.76415 47.0678 9.69868C47.3721 9.65504 47.7849 9.85145 47.8501 10.1352C47.8719 10.2443 47.8284 10.397 47.8067 10.5062C47.7849 10.768 47.7415 11.0299 47.7849 11.27C47.8067 11.5537 48.024 11.6191 48.263 11.4446C48.7845 11.0954 49.1105 10.1788 48.8715 9.61139C48.7193 9.24039 48.8063 9.00034 49.0236 8.69481C49.5016 8.04011 49.5668 8.01828 50.2405 8.4984C50.2839 8.52022 50.3057 8.54204 50.3708 8.58569C50.7403 8.1274 51.1097 7.66911 51.4574 7.21082C52.8046 5.48677 54.1736 3.78454 55.5209 2.06049C55.6513 1.90773 55.7382 1.73314 55.7382 1.5149C55.7165 1.20938 55.8686 0.991143 56.1511 0.838379C56.2163 0.838379 56.3249 0.838379 56.4336 0.838379ZM51.327 12.012C51.2835 11.2263 50.8054 10.899 50.197 11.139C49.7624 11.2918 49.393 11.6191 49.0236 11.881C48.8497 11.9901 48.8715 12.1647 49.0018 12.2738C49.2409 12.4921 49.4799 12.7103 49.7624 12.8631C50.1753 13.1031 51.1966 12.623 51.3052 12.1647C51.327 12.0993 51.327 12.0338 51.327 12.012Z" fill="#ED1C24"/>
<path d="M90.2895 30.1471C88.9422 30.1471 87.5732 30.1471 86.226 30.1471C85.8565 30.1471 85.5089 30.1035 85.1394 30.0816C85.0525 30.0816 84.9221 30.1471 84.9004 30.2344C84.4006 31.4565 83.8791 32.6786 83.401 33.9226C83.2924 34.1844 83.2489 34.49 83.2489 34.7737C83.2489 35.3193 83.5531 35.6684 84.0095 35.8867C84.3354 36.0394 84.6614 36.1922 84.9656 36.345C85.0743 36.4104 85.1829 36.4759 85.2916 36.5414C85.4219 36.6505 85.5958 36.7596 85.5306 36.956C85.4654 37.1743 85.2916 37.2834 85.0743 37.2615C84.6396 37.2615 84.2268 37.2179 83.7922 37.1961C82.271 37.087 80.7717 37.1524 79.2723 37.458C78.8594 37.5453 78.5986 37.3707 78.5986 36.9997C78.5986 36.8687 78.6638 36.716 78.7507 36.6505C78.9246 36.4977 79.1202 36.345 79.3375 36.2795C80.2719 35.9085 80.8803 35.1883 81.2932 34.3154C82.4666 31.7839 83.6401 29.2305 84.77 26.6772C86.0304 23.862 87.2255 21.0031 88.0948 18.0351C88.2903 17.3368 88.7032 16.9658 89.3334 16.7257C89.5072 16.6602 89.6376 16.6821 89.7028 16.8348C89.8332 17.0531 89.9636 17.2713 90.0505 17.5114C91.7454 21.4396 93.4187 25.3678 95.0919 29.296C95.8525 31.0419 96.6348 32.7659 97.3953 34.49C97.8299 35.472 98.5687 36.1049 99.5901 36.4323C99.677 36.4541 99.7639 36.4977 99.8508 36.5196C100.329 36.716 100.307 36.956 100.09 37.3925C100.068 37.458 99.8943 37.5016 99.8074 37.4798C98.0907 37.1306 96.3523 37.1961 94.6138 37.2834C94.1358 37.3052 93.636 37.327 93.1579 37.3707C93.071 37.3707 92.9623 37.3707 92.8754 37.3707C92.6798 37.3488 92.4843 37.3052 92.4191 37.087C92.3539 36.8469 92.4625 36.6723 92.6581 36.5632C92.9406 36.4104 93.2666 36.2795 93.5491 36.1267C93.7881 35.9958 94.0054 35.8648 94.201 35.7121C94.5487 35.4284 94.6138 35.2101 94.4617 34.7955C94.201 34.119 93.9185 33.4425 93.6142 32.7659C93.2666 31.9585 92.9189 31.1728 92.5712 30.3653C92.506 30.1908 92.4191 30.1689 92.2452 30.1689C91.6803 30.1689 90.9849 30.1471 90.2895 30.1471ZM85.5089 28.9032C87.7253 29.0559 89.8766 29.0778 92.0714 28.9468C92.0279 28.8159 91.9845 28.7504 91.9628 28.6631C90.9849 26.459 90.0288 24.2766 89.0509 22.0725C89.0292 22.007 89.0074 21.9197 88.964 21.8542C88.877 21.7669 88.7901 21.6142 88.7032 21.6142C88.6163 21.6142 88.5294 21.7669 88.4424 21.8542C88.4207 21.876 88.399 21.9415 88.399 21.9633C87.6384 23.8183 86.8779 25.6733 86.1173 27.5065C85.9 27.9648 85.7262 28.4231 85.5089 28.9032Z" fill="#ED1C24"/>
<path d="M23.4037 30.9982C23.4037 32.0021 23.4037 32.9842 23.4037 33.988C23.4037 35.0792 23.8818 35.6903 24.9466 35.8867C25.4246 35.974 25.9027 35.974 26.4025 35.9958C27.4455 35.9958 28.5103 36.0613 29.5534 35.843C31.031 35.5375 32.1175 34.7737 32.6391 33.3115C32.8129 32.8532 33.1389 32.7659 33.5517 33.006C33.7473 33.1151 33.769 33.3115 33.7256 33.5079C33.5735 34.4463 33.3996 35.3847 33.2475 36.3231C33.2041 36.5632 33.1823 36.8251 33.1823 37.087C33.1823 37.2616 33.0954 37.3488 32.9433 37.3707C32.726 37.3925 32.487 37.4143 32.2697 37.4143C30.9224 37.3925 29.5751 37.3488 28.2278 37.3052C27.489 37.2834 26.7502 37.2616 26.0113 37.2834C23.7731 37.327 21.5566 37.3707 19.3184 37.4361C19.2098 37.4361 19.1011 37.4361 18.9707 37.4143C18.7317 37.3707 18.623 37.1961 18.6013 36.9778C18.5796 36.7596 18.6882 36.6069 18.9055 36.5414C19.1663 36.4759 19.4271 36.4323 19.6878 36.3886C20.4484 36.2577 20.6657 35.9958 20.7309 35.2102C20.7309 35.0792 20.7526 34.9701 20.7526 34.8392C20.7526 30.0598 20.7526 25.2805 20.7526 20.523C20.7526 20.1302 20.6874 19.7374 20.644 19.3445C20.6005 19.0172 20.4267 18.7989 20.1442 18.668C19.7747 18.4934 19.4053 18.3407 19.0142 18.2097C18.623 18.057 18.5144 17.8169 18.6448 17.4241C18.71 17.2495 18.8186 17.1404 19.0142 17.1622C19.3401 17.2058 19.6878 17.2495 20.0138 17.2713C22.0347 17.315 24.0339 17.3586 26.0548 17.3804C27.3152 17.3804 28.5972 17.3368 29.8576 17.315C30.6399 17.2931 31.4004 17.2495 32.1827 17.2058C32.2914 17.2058 32.4 17.2058 32.5304 17.2277C32.7043 17.2277 32.7912 17.2931 32.7477 17.4895C32.5087 18.5807 32.4435 19.6937 32.4652 20.8285C32.4652 21.0686 32.4652 21.3086 32.161 21.3959C31.8785 21.4614 31.596 21.3305 31.4439 21.0468C31.2918 20.7194 31.1614 20.3921 31.0093 20.0647C30.6182 19.2572 29.9445 18.8426 29.0753 18.7989C27.3803 18.7335 25.6637 18.7117 23.9687 18.6898C23.5558 18.6898 23.4254 18.7989 23.4254 19.2136C23.4254 20.7412 23.4254 22.247 23.4037 23.7747C23.4037 24.3857 23.4037 24.9968 23.4037 25.6079C23.4037 25.957 23.5341 26.088 23.8818 26.088C24.7727 26.0661 25.6419 26.0225 26.5329 25.9788C26.9457 25.957 27.3586 25.9134 27.7715 25.8916C28.1626 25.8697 28.4451 25.6951 28.5755 25.3241C28.7059 24.975 28.7711 24.604 28.858 24.233C28.9884 23.6656 29.2709 23.5128 29.7924 23.7529C29.9662 23.8402 30.0749 23.9711 30.0314 24.1675C29.6838 25.8697 29.7055 27.5938 29.7489 29.3178C29.7707 29.7979 29.7055 29.8852 29.3795 29.9725C29.0536 30.0598 28.8363 29.9289 28.7711 29.5797C28.7059 29.2087 28.6407 28.8159 28.5538 28.4449C28.4017 27.7902 28.0757 27.5065 27.4021 27.4628C26.2286 27.3974 25.0552 27.3537 23.8818 27.3101C23.4254 27.2883 23.4037 27.3319 23.4037 27.812C23.4037 28.8595 23.4037 29.9289 23.4037 30.9982Z" fill="#ED1C24"/>
<path d="M0 12.7757C0.0217303 12.7321 0.0434606 12.7103 0.0651908 12.6666C0.195572 12.3174 0.304224 12.2302 0.695369 12.2738C1.12997 12.3174 1.56458 12.4047 1.97746 12.4266C2.71628 12.4702 3.45511 12.5357 4.19394 12.5357C6.41043 12.5575 8.62692 12.6012 10.8434 12.5575C13.0164 12.5139 15.1895 12.4047 17.3408 12.3393C17.7319 12.3174 18.123 12.3611 18.5142 12.3829C18.688 12.4047 18.7967 12.492 18.7532 12.7103C18.4273 14.0633 18.3838 15.4382 18.3404 16.8131C18.3404 16.9877 18.3186 17.1841 18.3186 17.3587C18.3186 17.6205 18.2969 17.8824 17.9927 17.9697C17.6667 18.0788 17.3842 18.0134 17.1452 17.7733C17.0365 17.6642 16.9713 17.5114 16.9062 17.3805C16.6889 16.944 16.4933 16.5075 16.276 16.0929C15.7544 15.0672 14.8852 14.5434 13.7553 14.478C11.7778 14.3907 9.80035 14.3688 7.8229 14.3252C7.54041 14.3252 7.27964 14.3907 6.99715 14.4343C6.71465 14.4998 6.58427 14.6962 6.56254 14.9799C6.56254 15.0672 6.56254 15.1545 6.56254 15.2418C6.56254 18.2971 6.56254 21.3305 6.56254 24.3858C6.56254 24.8659 6.71465 25.0187 7.19272 24.9968C8.60519 24.9532 9.99593 24.8659 11.4084 24.8004C11.7561 24.7786 12.1255 24.7568 12.4732 24.735C13.1034 24.6913 13.4293 24.4513 13.5814 23.8184C13.7118 23.3383 13.777 22.8582 13.8856 22.378C13.9508 22.0943 14.0595 21.8325 14.3637 21.767C14.7114 21.7015 15.0591 21.767 15.3198 22.007C15.4068 22.0943 15.4502 22.2907 15.4285 22.3999C15.1243 23.9275 15.0156 25.4551 15.0156 27.0046C15.0156 27.8775 15.0373 28.7505 15.0373 29.6234C15.0373 30.0162 14.9504 30.1908 14.581 30.2563C14.1029 30.3654 13.8422 30.2563 13.7118 29.8635C13.6466 29.6889 13.6249 29.4925 13.5597 29.3179C13.451 28.9687 13.3424 28.5977 13.1903 28.2485C12.8209 27.332 12.1472 26.8518 11.1259 26.8518C9.73516 26.83 8.34443 26.7864 6.95369 26.7427C6.606 26.7427 6.54081 26.8082 6.54081 27.1792C6.54081 30.2126 6.54081 33.2461 6.54081 36.3014C6.54081 37.1743 6.86677 37.6544 7.71425 37.8945C8.40962 38.0691 9.14845 38.1782 9.86554 38.3091C10.0611 38.3528 10.2567 38.3964 10.4305 38.4619C10.6913 38.571 10.7782 38.8111 10.7782 39.0948C10.7565 39.3567 10.6478 39.5531 10.4088 39.5967C9.99593 39.684 9.58305 39.7495 9.17018 39.7277C7.62733 39.684 6.10621 39.5531 4.56336 39.5531C3.38992 39.5531 2.21649 39.684 1.02132 39.7495C0.912671 39.7495 0.80402 39.7713 0.717099 39.7713C0.217303 39.7713 -0.0869211 39.3785 0.0651908 38.8984C0.108651 38.7674 0.239033 38.6365 0.347684 38.5928C0.521527 38.5055 0.738829 38.4619 0.956132 38.4401C1.67323 38.3528 2.19476 37.96 2.49898 37.3053C2.82494 36.6287 2.93359 35.8867 2.93359 35.1447C2.93359 29.0996 2.93359 23.0546 2.93359 16.9877C2.93359 15.6128 2.39033 14.5871 1.12997 13.976C0.999593 13.9106 0.869211 13.8451 0.738829 13.7796C0.434606 13.6487 0.173842 13.4523 0 13.1467C0 13.0376 0 12.9067 0 12.7757Z" fill="#ED1C24"/>
<path d="M70.4059 27.812C70.7753 28.5322 71.0796 29.2524 71.449 29.9289C72.5137 31.9366 73.7741 33.7916 75.4473 35.3411C76.1644 36.0176 76.9685 36.585 77.9898 36.7596C78.1202 36.7814 78.294 36.9342 78.3592 37.0433C78.5548 37.3925 78.4027 37.6325 78.0115 37.6544C77.0771 37.698 76.2079 37.5234 75.3387 37.1524C73.861 36.5414 72.6441 35.5375 71.5793 34.359C70.0148 32.6568 68.8196 30.7145 67.7548 28.6631C67.581 28.3576 67.4289 28.2485 67.0812 28.2921C66.5814 28.3576 66.0816 28.3576 65.5601 28.3794C65.5601 28.4885 65.5383 28.5758 65.5383 28.6631C65.5383 30.7145 65.5383 32.7659 65.5383 34.8173C65.5383 35.5157 65.7339 35.7776 66.4075 35.9521C66.7987 36.0613 67.1898 36.1049 67.581 36.1922C67.7331 36.2358 67.8852 36.2795 68.0156 36.345C68.2546 36.4759 68.3198 36.6941 68.2546 37.0215C68.1894 37.2834 67.9939 37.2834 67.7983 37.2615C66.8856 37.2397 65.9729 37.1961 65.0603 37.2179C63.8434 37.2397 62.6047 37.327 61.3879 37.3707C60.975 37.3925 60.8011 37.2615 60.7577 36.9778C60.7142 36.6941 60.8011 36.5196 61.0836 36.4541C61.214 36.4104 61.3444 36.3886 61.4748 36.3886C62.344 36.2795 62.822 35.7994 62.8872 34.9264C62.8872 34.8173 62.8872 34.7082 62.8872 34.6209C62.8872 29.8634 62.8872 25.1059 62.8872 20.3484C62.8872 19.2572 62.4309 18.668 61.3661 18.4061C61.1054 18.3406 60.8663 18.2752 60.6273 18.1879C60.4534 18.1224 60.3448 17.9697 60.3665 17.7514C60.3883 17.5114 60.4969 17.3368 60.7359 17.3149C60.9532 17.2931 61.1705 17.3368 61.3879 17.3368C62.4526 17.3586 63.4957 17.3804 64.5605 17.3804C66.1251 17.3804 67.6896 17.3149 69.2542 17.3368C70.3625 17.3586 71.449 17.555 72.4703 18.0133C74.4043 18.8426 75.3821 20.3921 75.2735 22.5089C75.1866 24.4076 74.3174 25.8697 72.6659 26.83C72.1009 27.1573 71.449 27.3755 70.8405 27.6374C70.7319 27.7029 70.6015 27.7465 70.4059 27.812ZM65.5601 27.2664C66.1033 27.2228 66.6248 27.201 67.1246 27.1355C68.2329 27.0045 69.2977 26.8081 70.2973 26.2844C71.2534 25.8043 71.9053 25.0404 72.1661 23.9929C72.4486 22.9017 72.4051 21.8106 72.0791 20.7412C71.8184 19.8683 71.2534 19.2354 70.4059 18.8862C69.1673 18.3843 67.8852 18.2752 66.5814 18.4716C65.9077 18.5589 65.6904 18.8426 65.5818 19.5191C65.5601 19.6719 65.5383 19.8465 65.5383 20.0211C65.5383 22.3125 65.5383 24.604 65.5383 26.8954C65.5601 27.0045 65.5601 27.1137 65.5601 27.2664Z" fill="#ED1C24"/>
<path d="M51.8921 26.8083C51.8921 29.2962 51.8921 31.8059 51.8921 34.2938C51.8921 34.4902 51.9138 34.6866 51.9355 34.883C52.0007 35.3413 52.2398 35.6905 52.6744 35.8651C53.2828 36.0833 53.913 36.2797 54.5214 36.4543C54.9343 36.5634 55.1081 36.9562 54.8474 37.3054C54.7605 37.4145 54.5432 37.48 54.391 37.4582C52.8917 37.3927 51.3923 37.2836 49.8929 37.2399C49.0019 37.2181 48.111 37.3491 47.2201 37.4145C47.1114 37.4145 47.0028 37.4363 46.8724 37.4363C46.5247 37.4363 46.3943 37.3491 46.3508 37.0653C46.2857 36.7598 46.3726 36.5634 46.6985 36.4543C47.0245 36.3452 47.3504 36.2579 47.6547 36.1488C48.7412 35.7559 49.1541 35.1885 49.1541 34.0319C49.1541 29.078 49.1541 24.1241 49.1541 19.1701C49.1541 18.7555 48.9368 18.5591 48.4587 18.5591C47.9806 18.5591 47.5026 18.5373 47.0245 18.5809C46.3726 18.6464 45.7207 18.7119 45.0688 18.8428C43.7649 19.1265 42.8088 19.8903 42.1786 21.0906C41.9613 21.5053 41.7658 21.9417 41.5702 22.3564C41.3746 22.7928 41.1356 22.8583 40.701 22.6401C40.5054 22.5528 40.4402 22.4 40.5054 22.1818C40.9617 20.6978 41.0269 19.1483 41.0487 17.5989C41.0487 17.3588 41.1573 17.2279 41.3746 17.2279C41.8527 17.2279 42.309 17.2279 42.7871 17.2497C44.0909 17.2933 45.3947 17.3588 46.6985 17.3806C47.546 17.4025 48.3935 17.4243 49.2192 17.4243C51.5227 17.4025 53.8261 17.3806 56.1295 17.3152C57.1508 17.2933 58.1721 17.1624 59.1934 17.0969C59.3238 17.0969 59.4759 17.0969 59.6063 17.1187C59.8019 17.1406 59.9105 17.2497 59.9323 17.4679C60.2365 19.0174 60.3234 20.5887 60.28 22.1818C60.28 22.3782 60.2365 22.531 59.9975 22.5964C59.6715 22.6837 59.4325 22.6401 59.3021 22.4218C59.2369 22.3127 59.1934 22.2036 59.15 22.0945C58.9761 21.7017 58.824 21.287 58.6719 20.8942C58.1938 19.7594 57.3029 19.1047 56.1077 18.8428C54.8908 18.5809 53.6522 18.4936 52.4136 18.6246C51.9355 18.6682 51.8486 18.7773 51.8486 19.2793C51.8921 21.7671 51.8921 24.2986 51.8921 26.8083Z" fill="#ED1C24"/>
<path d="M39.7227 22.749C39.9835 23.3601 40.505 23.5565 41.1135 23.6656C38.897 26.6772 36.6805 29.667 34.5075 32.6132C34.2684 32.4386 34.0294 32.2422 33.7904 32.1331C33.5296 32.024 33.2471 32.0021 32.9429 31.9367C35.1594 28.9032 37.4193 25.8479 39.7227 22.749Z" fill="#ED1C24"/>
</g>
<defs>
<clipPath id="clip0_259_25570">
<rect width="160" height="44.4106" fill="white" transform="translate(0 0.794678)"/>
</clipPath>
</defs>
</svg>
