<?xml version="1.0" encoding="UTF-8"?>
<svg id="Layer_1" xmlns="http://www.w3.org/2000/svg" version="1.1" viewBox="0 0 36.2 46">
  <!-- Generator: Adobe Illustrator 29.4.0, SVG Export Plug-In . SVG Version: 2.1.0 Build 152)  -->
  <defs>
    <style>
      .st0 {
        fill: #ed1c24;
      }

      .st1 {
        fill: #fff;
      }
    </style>
  </defs>
  <path class="st1" d="M16.4,24.5c-1.6-2.1-3.5-4.6-5-6.7-.2-.3-1.1-1.2-1.3-1.7-.7-.9-.7-1.5-1.4-1.8-.2,0-.4,0-.7-.1,0,.5,0,.7-.3,1h-.5c-.5-.2-.5-.8-.9-1.1-.3-.2-.8,0-1-.3-.4-.4-.8-.9-1.2-1.3-.4.3-.9,1-1.5.7v-.3c1-1.1,1.9-2.3,2.9-3.4C4,7.3,2.5,5.2,1,3c-.3-.5-.9-.7-1-1.1v-.5c.2-.2.5-.5.9-.3.1,0,1,1.7,1.2,2,1.5,1.8,2.9,3.6,4.4,5.5.3-.1.4-.3.8-.4.3.3.5.6.8.9-.1.9-.3,2.5.9,2.3.1-.4,0-.9,0-1.3.1-.3.3-.4.6-.5.4,0,.6.2.9.4,0,.5.1,1,.4,1.4h.5v.4c0,.2-.1.3-.4.5h-.8c0,1.8,1.2,2.6,1.9,3.6,1.7,2.3,3.9,5.4,5.6,7.7"/>
  <path class="st1" d="M31.3,42.4c-.6-1.2-1.4-2.6-2.3-3.8h0s0,0-.1-.2l-4.2-5.4h0c-2.2-3-4.3-5.9-6.5-8.9l-1.1,1.4c2.3,3.1,4.6,6.2,6.8,9.2l3.5,4.8c1.3,1.9,2.9,3.9,4.6,4.7,0-.6-.5-1.5-.8-1.9h0Z"/>
  <g>
    <path class="st0" d="M2.2,44.3c1.7-.5,5.1-5.3,6.2-6.9h-2c-1.3,1.9-3.7,4.3-4.1,7h0Z"/>
    <path class="st0" d="M34.2,1.3c0-.1-.3-.2-.4-.3h-.3c-.3,0-.4.4-.4.7s0,.4-.2.5c-1.3,1.7-2.6,3.3-4,5-.3.4-.7.9-1.1,1.4h-.1c-.7-.5-.7-.4-1.2.2-.2.3-.3.5-.1.9.2.6,0,1.4-.6,1.8-.2.2-.4.1-.5-.2v-1.1c0-.3-.5-.5-.8-.4-.4,0-.7.4-.7.7v.7c0,.3-.2.5-.6.4h-.2c.1.2.1.6.3.6.2.1.6.1.9.2v.7c0,.3,0,.4-.2.6-.6.8-1.2,1.6-1.8,2.4,0,0-.1.1-.1.2l-4.6,6.2c-2.3,3-4.5,6-6.6,9l-4.6,6h2l4.1-5.4c2.1-2.9,4.3-5.8,6.5-8.7l5.2-7.1h0c.4-.5.8-1,1.1-1.6.2-.3.6-.5,1-.4h0c0,.5.1.8.3.9.3.1.6,0,.8-.3.2-.2.3-.4.5-.7,0,0,.1-.1.2-.1.5,0,.9-.3,1.2-.6.3-.3.6-.6.8-1,.2.2.4.4.6.5.1.1.3.2.5.3.1,0,.3,0,.4-.1s0-.3,0-.4c-.9-1-1.7-2-2.6-3-.1-.2-.1-.3,0-.4,1.4-2.1,2.9-4.1,4.3-6.1.2-.3.4-.7.9-.9.4-.2.4-.7,0-1h.1ZM28.8,12.1c-.1.4-1.1.9-1.5.7-.3-.1-.5-.4-.7-.6s-.1-.3,0-.4c.4-.3.7-.6,1.1-.7.6-.2,1.1,0,1.1.9h0Z"/>
  </g>
</svg>